<svg xmlns="http://www.w3.org/2000/svg" width="200" height="200" fill="none" viewBox="0 0 200 200">
<!-- SVG created with Arrow, by QuiverAI (https://quiver.ai) -->
  <path d="m22.79 84c-1.11-0.64-1.61-1.6 0.32-3.3 6.5-6.17 10.58-13.17 11.62-16.59-6.82-2.87-9.01-10.61-9.49-20.67-3.11 5.23-4.88 10.47-5.12 14.63-0.08 1.39 0.32 3.86 0.08 5.24-0.48 2.8-3.67 6.05-7.91 2.8-4.31-3.24-6.16-11.15-5.76-18.39 0.32-5.85 1.61-11.46 2.33-17.71 0.4-3.38-0.08-4.26-1.13-6.2-1.12-1.78 0.09-3.64 2.52-3.15 3.67 0.8 7.6 5.95 7.92 8.58 0.32 2.62-1.04 4.56-2.16 7.86-1.77 5.53-2.41 9.03-2.33 12.83 0 0.72 0.4 0.72 0.88-0.66 2.25-5.32 4.25-10.24 8.49-14.46 1.53-6.74 4.8-25.25 13.27-25.81 5.97-0.32 9 4.6 9.4 8.16l0.64 5.93c9.63-0.08 15.2 6.64 16.32 16.17 0.56 1.03 1.75 1.27 2.63 0.74 1.77-1.09 5.28-3.18 8.47-4.06l0.88-10.82c0.16-2.19-0.88-3.81-2.43-3.98-1.69-0.24-1.21-3.18 1.71-4.06 3.77-1.16 9.42 2.65 9.82 6.37 0.32 2.86-1.44 5.48-1.6 8.26 1.76 1.24 2.65 3.02 0.88 7.16 4.09-4.79 7.76-7.81 13.17-7.41 5.81 0.48 7.66 6.16 6.61 13.48l-2.58 15.98c-0.72 4.63 0.48 5.89 3.31 5.25 3.51-0.81 5.68-3.1 7.21-6.2 0.32-0.64 1.28-0.72 2-0.16 0-1.54-0.08-2.58-0.08-2.58-5.25-1.7-6.62-6-6.06-10.78 0.64-5.23 4.66-8.34 9.82-9.51-6.2-3.1-8.77-7.49-8.21-14.82 0.4-3.48 2.49-3.48 2.89-1.14 0.89 4.78 4.64 6.8 9.71 7.95l2.65-10.17c0.56-2.28-0.32-3.75-2.25-5.13-1.61-1.16-0.8-2.54 0.24-2.62 6.74-0.72 11.46 3.91 12.27 8.69 0.32 2.36-2.73 7.51-3.77 11.23 3.85 1.78 5.38 4.24 4.82 7.58-0.65 3.56-4.24 4.04-8.71 2.5l-2.64 8.65c3.48 0 8.73 0.24 9.29 6.1 0.4 4.29-2.51 5.97-6.67 5.4-1.85-0.32-3.05-0.4-4.82-0.96-0.8 5-0.88 10.32 5.48 12.66 5.65 2.12 10.12-3.82 10.6-10.55 0.32-4.63-1.61-9.55-4.11-14.79-0.88-2.04 0.08-3.33 2.1-2.53 6.82 2.94 12.23 12.72 11.91 20.54-0.4 10.25-8.54 17.91-18.33 17.35-8.71-0.48-15.45-7.14-15.45-16.27-3.35 7-7.51 9.01-11.36 9.01-6.44 0-10.45-3.88-10.05-12.19 0.24-6.25 2.41-15.3 3.05-20.62 0.48-4.46-1.13-5.84-4.56-3.66-3.59 2.26-8.85 10.18-10.29 12.74 0 5.23 1.36 15.73 1.52 21.26 0.08 4.92-2.64 9.31-5.57 8.99-2.25-0.25-2.97-2.1-3.45-4.55-0.72-2.95-2.57-4.73-4.1-4.89-1.77 3.11-4.1 3.11-5.86 1.17-1.85-2.11-2.73-7.03-0.56-8.81 4.55-3.64 10.91-14.55 11.55-19.47-1.61-0.25-2.41 2.45-3.78 3.6-1.93 1.54-4.27 0.28-6.93-3.06-1.61 10.91-9.19 19.63-20.19 19.79-4.09 8.39-10.28 14.6-18.2 17.85-0.55 0.23-1.43 0.47-1.87 0.23z" />
  <path d="m27.87 34.01c2.17-2.87 6.64-6.35 10.65-7.3l-1.44-9.53c-0.72-3.35-2.41-3.51-4.26-0.96-2.66 3.81-4.11 12.94-4.95 17.79z" />
  <path d="m28.35 37.18c0.4 9.53 1.93 16.78 8.53 19.88 2.09-9.05 1.93-18.03 1.29-27.73-4.16 1.33-7.65 4.59-9.82 7.85z" />
  <path d="m45.27 28.11c0.81 9.61 0 19.53-0.24 28.83 7.06-0.72 9.78-10.17 8.58-18.32-0.88-5.85-3.45-10.35-8.34-10.51z" />
  <path d="m118.9 38.43-7.37 5.4c-2.17 2.02-2.65 5.9 4.57 7.44l2.8-12.84z" />
  <path d="m171 25.43c10.4-0.8 15.81 6.35 16.45 17.8 0.88 14.4-9.52 25.38-22.24 29.9-1.61 0.72-1.37 1.67-0.25 1.67 15.35-0.87 30.71-10.95 31.27-27.49 0.64-13.51-9.25-25.89-24.27-25.89-14.86 0-26.9 13.35-27.22 26.34-0.08 2.86 0.32 5.06 1.28 6.52 2.58 2.86 3.14 4.56 3.62 8.55 0.56 4.92 5.29 6.08 8.78 3.62 7.35-4.92 13.95-20.16 14.83-28.46 0.48-4.78-1.21-8.83-3.14-11.54-0.88-1.24-0.24-0.94 0.89-1.02z" />
  <path d="m167.9 27.03c-9.48 1.94-16.48 12.2-16.48 22.12 0 3.34 0.72 5.97 1.85 7.91 0.64 1.15 1.91 0.67 2.88-0.4 5.96-6.65 11.91-18.79 12.55-26.53 0.17-1.94 0-3.26-0.8-3.1z" />
  <path d="m70.04 68.41 3.84-8.4 0.8 9.27c0.16 1.54-1.04 1.54-1.84 0.9l-2.8-1.77z" />
  <path d="m5.26 97.18 4.91-7.18h20.84l4.82 5.24v8.32l-3.25 4.3 4.55 4.29v16.75l-5.41 5.06h-18.91v-31.23l6.04-5.55h-13.59z" />
  <path d="m20.94 97.18v12.54l6.37-6.4v-4.69l-1.05-1.45h-5.32z" />
  <path d="m21.5 112.4v13.68h7.25l0.89-0.88v-11.18l-1.37-1.62h-6.77z" />
  <path d="m37.01 108.1 3.56-6.17h7.8v23.22l1.29 1.38h3.07v-24.6h7.25v32.03h-7.25v-2.55l-3.51 2.55h-3.5l-5.49-4.92v-18.96h-3.22v-1.98z" />
  <path d="m63.25 101.9v32.03h7.5v-23.72l1.53-2.09h5.09l4.06-6.22h-7.49l-2.72 3.26v-3.26h-7.97z" />
  <path d="m78.33 103.8v30.16h7.5v-25.26h3.93l1.2 1.62v23.64h7.12v-26.3l-4.91-5.73h-4.01l-3.1 3.74v-3.74h-5.55l-2.18 1.87z" />
  <path d="m99.76 96.7 5.97-6.7h5.03l3.67 3.96v18.96l0.88 1.78h5.73v-24.7h8.41v37.97l-5.17 5.99h-22.84l6.29-7.7h11.62l1.69-2.12v-5l-2.17 1.62h-8.03l-5.07-5.24v-18.82h-6.01z" />
  <path d="m136.7 101.9-4.54 5.53v21.44l5.18 5.06h9.63l4.39-4.5v-21.6l-4.07-5.93h-10.59z" />
  <path d="m139.7 108.5v18.1l1.04 0.72h3.19l0.96-1.16v-16.61l-1.28-1.05h-3.91z" />
  <path d="m153.8 101.9v26.21l5.17 5.82h5.65l2.44-2.87v2.87h6.92v-32.03h-7.12v24.88l-1.2 0.96h-2.81l-1.29-1.62v-24.22h-7.76z" />
  <path d="m177.3 101.9v32.03h7.62v-23.64l1.29-1.7h5.25l5.17-6.85h-8.36l-2.55 3.9v-3.74h-8.42z" />
  <path d="m14.82 137.1-5.76 5.85v31.71l5.96 5.73h12.81l6.28-6.05v-31.39l-5.88-5.85h-13.41z" />
  <path d="m16.97 144.1v26.7l2.24 2.34h6.37v-26.69l-1.93-2.35h-6.68z" />
  <path d="m37.25 148.5v25.88l5.17 6.01h6.2l2.24-3.64 2.8 3.64h6.61l5.48-5.45v-26.44h-8.12v24.6l-0.96 0.88h-2.93v-23.27h-5.48l-0.8 0.88v21.44l-1.04 0.95h-1.69l-1.36-1.36v-24.12h-6.12z" />
  <path d="m68.33 148.5v31.89h7.65v-23.48l1.04-1.38h3.09v24.86h7.5v-26.02l-4.83-5.87h-4.07l-2.53 3.13v-3.13h-7.85z" />
  <path d="m96.12 143.6v13.5l7.11 6.8 9.33-2.7v11.53h-14.01l-5.66 7.61h21.7l6.36-6.57v-14.89l-7.04-7.26-9.09 2.78v-9.92h13.59l5.55-7.43h-21.44l-6.4 6.55z" />
  <path d="m121.4 149.2v5.55h4.47v20.36l4.17 4.79h6.04l4.17-6.38-7.12-0.24-0.64-1.16v-16.47h6.44l2.56-6.45h-9v-7.58h-6.62v7.58h-4.47z" />
  <path d="m143 148.8v25.56l4.31 4.92h3.83l2.55-2.87v6.34h-8.85l-4.83 7.17h15.69l5.33-5.45v-35.67h-7.9v23.8l-0.8 0.88h-2.75l-1.43-1.62v-23.06h-5.15z" />
  <path d="m163.8 137.1v43.29h7.88v-43.29h-7.88z" />
  <path d="m178.8 148.5-4.91 5.43v20.81l5.07 5.65h11.08l4.72-6.85h-11.77l-0.96-1.08v-4.39h4.07l7.45-6.84v-7.54l-4.15-5.19h-10.6z" />
  <path d="m181.6 155.2v10.26l4.55-4.63v-4.78l-0.64-0.85h-3.91z" />
</svg>
<svg xmlns="http://www.w3.org/2000/svg" width="200" height="200" fill="none" viewBox="0 0 200 200">
<!-- SVG created with Arrow, by QuiverAI (https://quiver.ai) -->

<path d="m171.4 5.89c-10.76 0-18 6.09-22.35 13.04-4.21 6.67-8.63 14.46-13.94 18.96 1.48-2.88 1.9-5.8 0.93-8.97-1.33-4.39-5.27-7.72-8.2-8.69l-0.46 0.59c2.94 2.76 5.33 5.93 4.39 11.56-1.05 6.09-5.67 9.66-11.58 9.66-5.29 0-7.21-2.51-7.21-5.59 0-1.64 0.39-3.37 0.9-5.29 2.02 0.33 3.84 0.51 5.28 0.51 2.88 0 4.27-1.01 4.27-2.58 0-1.35-1.21-2.37-3.4-2.11-1.47 0.19-2.72 0.65-4.98 0.34 1.13-3.5 2.53-7.18 3.71-9.89 0.75-0.11 1.57-0.16 2.45-0.16 2.71 0 3.97-0.75 3.97-2.05 0-1.41-1.47-2.19-4.17-2.16 1.1-2.66 2.78-5.25 4.41-7.12 1.26-1.47 0.29-2.99-1.55-4.14-2.07-1.25-3.84-1.02-5.53-0.71-0.87 0.17-1.24 0.63-1.18 1.08 0.05 0.46 0.54 0.41 1.51 0.58 1.52 0.31 1.91 1.66 1.33 4.04-0.49 1.97-1.49 4.22-2.59 6.66-4.7-0.31-7.3-1.24-9.12-4.4-0.78-0.32-1.24 0.14-1.18 1.06 0.29 3.76 2.72 5.22 6.8 6.47-3.91 1.13-6.88 3.06-9.26 7.03-4.54 7.47-9.23 13.21-14.99 13.55-3.22 0.2-4.26-1.13-3.48-5.07 1.33-6.67 4.52-12.17 4.52-17.04 0-4.12-3.33-5.34-5.59-5.34-5.41 0-11.31 5.09-16.37 10.04 0.63-1.87 1.06-3 1.29-3.46 0.67-1.47 0.61-1.98-0.17-2.84-0.63-0.7-0.63-1.01-0.06-2.75 0.62-1.97 1.3-3.54 2.33-4.62 1.33-1.41 0.64-2.93-1.49-4.14-1.93-1.08-3.48-0.97-4.95-0.62-0.81 0.2-0.98 0.4-0.98 1.09 0 0.34 0.4 0.37 1.09 0.48 2.01 0.34 2.35 1.86 1.61 4.24-0.57 1.92-1.13 3.8-1.64 5.59-2.79 1.25-5.72 2.56-7.65 2.7-1.38 0.11-2.32-0.31-3.07-1.83-0.75-0.11-1.72 0.59-1.61 1.77 0.11 1.13 0.5 2.26 1.26 3.18-3.5 5.18-7.2 9.77-12.08 12.62 2.49-3.02 2.88-7.08 2.88-10.27 0-7.3-5.73-11.01-12.32-10.83-0.11-5.65-1.58-7.97-5.23-7.97-5.99 0-9.51 8.14-11.46 15.23-4.58 2.8-8.79 8.59-10.67 12.56-0.7-4.54 1.91-10.86 5.24-16.26 1.84-3.17 0.06-6.71-3.9-8.08-0.88-0.31-1.45 0.2-0.88 1.08 0.97 1.59 0.4 4-1.44 8.46-2.14 5.46-3.14 9.23-2.94 14.63 0.2 5.24 1.46 8.57 4.33 8.57 1.47 0 2.03-1.17 1.98-2.87-0.2-4.98 3.5-11.98 7.53-16.11-0.17 1.22-0.85 4.84-0.03 8.22 0.89 3.64 2.81 6.94 6.79 8.51-3.19 4.6-6.73 7.36-11.35 9.04l0.28 0.97c6.47-1.33 11.47-4.63 14.77-8.93 8.97 0.67 17.53-3.4 24.34-11.11 2.16-2.45 3.91-4.69 5.17-6.39 0.88 0.68 1.94 1.05 2.87 0.85 1.52-0.37 4.04-2.01 6.36-3.23l-0.81 2.97c-4.08 5.96-8.98 11.72-12.23 14.58-2.53 2.33-2.76 5.25-1.03 5.48 1.83 0.26 3.58-1.34 5.18-5.05 2.76 1.92 3.51 4.85 3.56 7.98 0.06 2.13 0.81 2.52 1.79 2.41 2.2-0.28 3.33-2.99 3.62-6.9 0.29-4.31 0.78-8.85 2.05-15.38 6.22-6.26 12.04-10.94 16.84-10.94 2.32 0 3.19 1.46 2.73 4.65-0.62 4.23-4.56 13.65-4.99 18.18-0.4 4.23 1.7 6.43 5.25 6.32 6.11-0.17 12.1-7.62 17.75-16.62 0.63 2.7 2.89 4.58 5.99 5.71-0.81 2.77-1.2 5.3-0.92 7.71 0.57 4.78 4.53 7.44 11.06 7.44 10.08 0 16.25-7.93 25.08-21.15-0.39 2.02-0.45 3.72-0.25 6.09 0.57 6.09 3 8.22 5.76 8.22 7.1 0 15.47-13.79 18.63-23.03 1.31-4.06 0.41-6.51-1.05-7.98l0.14-0.56c9.18-0.51 14.78 3.99 14.98 12.39 0.2 9.96-7.41 20.17-20.76 22.37l-0.17 1.36c14.7-0.93 25.66-9.71 25.84-21.66 0.2-10.21-7.22-15.93-17.58-15.93zm-143.4-1.88c2.26 0 2.4 3.26 2.17 6.58-4.41 0.56-8.05 2.52-11.43 4.85 1.64-5.47 4.4-11.43 9.26-11.43zm-10.14 17.27c0-1.13 0.14-2.46 0.43-3.77 3.21-2.43 7.01-4.45 11.72-5.41-0.46 8.62-1.81 16.82-4.68 21.32-5.01-0.81-7.47-5.68-7.47-12.14zm11.22 12.14c2.65-5.3 3.98-13.27 4.09-21.1 5.6-0.19 8.53 3.72 8.3 8.74-0.34 7-4.38 12.02-12.39 12.36zm31.89 5.02c-1.13-2.33-2.57-3.91-3.9-5.07l6.38-7.58c-0.81 4.09-1.66 9.27-2.48 12.65zm45.59-14.98c0.34-3.45 3.33-5.41 8.33-6.12-1.39 3.18-2.7 6.54-3.67 9.38-2.65-0.7-4.43-1.35-4.66-3.26zm46.4 10.68c-2.59 0-3.57-2.81-3.23-7.42 0.7-9.29 9.91-16.44 17.65-17.7 1.64 1.01 1.3 4.2-0.96 9.2-3.78 8.39-10 15.92-13.46 15.92z" />
</svg>
<svg
className=""
viewBox="0 60 200 150"
preserveAspectRatio="none"
role="img"
>
{/* SVG created with Arrow, by QuiverAI (https://quiver.ai)  */}
<path d="m5.26 97.18 4.91-7.18h20.84l4.82 5.24v8.32l-3.25 4.3 4.55 4.29v16.75l-5.41 5.06h-18.91v-31.23l6.04-5.55h-13.59z" />
<path d="m20.94 97.18v12.54l6.37-6.4v-4.69l-1.05-1.45h-5.32z" />
<path d="m21.5 112.4v13.68h7.25l0.89-0.88v-11.18l-1.37-1.62h-6.77z" />
<path d="m37.01 108.1 3.56-6.17h7.8v23.22l1.29 1.38h3.07v-24.6h7.25v32.03h-7.25v-2.55l-3.51 2.55h-3.5l-5.49-4.92v-18.96h-3.22v-1.98z" />
<path d="m63.25 101.9v32.03h7.5v-23.72l1.53-2.09h5.09l4.06-6.22h-7.49l-2.72 3.26v-3.26h-7.97z" />
<path d="m78.33 103.8v30.16h7.5v-25.26h3.93l1.2 1.62v23.64h7.12v-26.3l-4.91-5.73h-4.01l-3.1 3.74v-3.74h-5.55l-2.18 1.87z" />
<path d="m99.76 96.7 5.97-6.7h5.03l3.67 3.96v18.96l0.88 1.78h5.73v-24.7h8.41v37.97l-5.17 5.99h-22.84l6.29-7.7h11.62l1.69-2.12v-5l-2.17 1.62h-8.03l-5.07-5.24v-18.82h-6.01z" />
<path d="m136.7 101.9-4.54 5.53v21.44l5.18 5.06h9.63l4.39-4.5v-21.6l-4.07-5.93h-10.59z" />
<path d="m139.7 108.5v18.1l1.04 0.72h3.19l0.96-1.16v-16.61l-1.28-1.05h-3.91z" />
<path d="m153.8 101.9v26.21l5.17 5.82h5.65l2.44-2.87v2.87h6.92v-32.03h-7.12v24.88l-1.2 0.96h-2.81l-1.29-1.62v-24.22h-7.76z" />
<path d="m177.3 101.9v32.03h7.62v-23.64l1.29-1.7h5.25l5.17-6.85h-8.36l-2.55 3.9v-3.74h-8.42z" />

<path d="m14.82 137.1-5.76 5.85v31.71l5.96 5.73h12.81l6.28-6.05v-31.39l-5.88-5.85h-13.41z" />
<path d="m16.97 144.1v26.7l2.24 2.34h6.37v-26.69l-1.93-2.35h-6.68z" />
<path d="m37.25 148.5v25.88l5.17 6.01h6.2l2.24-3.64 2.8 3.64h6.61l5.48-5.45v-26.44h-8.12v24.6l-0.96 0.88h-2.93v-23.27h-5.48l-0.8 0.88v21.44l-1.04 0.95h-1.69l-1.36-1.36v-24.12h-6.12z" />
<path d="m68.33 148.5v31.89h7.65v-23.48l1.04-1.38h3.09v24.86h7.5v-26.02l-4.83-5.87h-4.07l-2.53 3.13v-3.13h-7.85z" />
<path d="m96.12 143.6v13.5l7.11 6.8 9.33-2.7v11.53h-14.01l-5.66 7.61h21.7l6.36-6.57v-14.89l-7.04-7.26-9.09 2.78v-9.92h13.59l5.55-7.43h-21.44l-6.4 6.55z" />
<path d="m121.4 149.2v5.55h4.47v20.36l4.17 4.79h6.04l4.17-6.38-7.12-0.24-0.64-1.16v-16.47h6.44l2.56-6.45h-9v-7.58h-6.62v7.58h-4.47z" />
<path d="m143 148.8v25.56l4.31 4.92h3.83l2.55-2.87v6.34h-8.85l-4.83 7.17h15.69l5.33-5.45v-35.67h-7.9v23.8l-0.8 0.88h-2.75l-1.43-1.62v-23.06h-5.15z" />
<path d="m163.8 137.1v43.29h7.88v-43.29h-7.88z" />
<path d="m178.8 148.5-4.91 5.43v20.81l5.07 5.65h11.08l4.72-6.85h-11.77l-0.96-1.08v-4.39h4.07l7.45-6.84v-7.54l-4.15-5.19h-10.6z" />
<path d="m181.6 155.2v10.26l4.55-4.63v-4.78l-0.64-0.85h-3.91z" />
</svg>