<svg xmlns="http://www.w3.org/2000/svg" width="200" height="200" fill="none" viewBox="0 0 200 200">
<!-- SVG created with Arrow, by QuiverAI (https://quiver.ai) -->
  <path d="m196.2 94.18-1.71-11.43-1.33-5.56-4.07-11.27-6.12-15.11-12.87-13.17-5.96-3.05-7.05-2.88-5.96-3.5-3.67-1.49-7.77-3.21-4.25-1.33-9.22-1.93-11.1-1.33h-20.56l-7.37 0.98-9.76 1.5-3.79 1.5-4.75 0.97-9.23 3.5-9.49 4.86-4.99 3.34-6.6 4.85-7.6 6.9-9.39 10.3-9.22 12.4-4.06 7.65-3.19 6.74-1.33 7.13-1.32 5.82v14.38l1.32 8.76 2.18 6.9 0.77 2.41-0.61 10.13 1.49 6.37 3.35 6.9 6.45 6.2 6.45 4.13 8.41 1.62h5.96l3.19-0.64 5.96 3.5 10.13 3.67 12.87 3.5 14.23 2.88 20 1.49h18l16.2-1.49 13.38-1.49 10.63-2.77 11.1-5.11 7.78-5.56 5.96-5.69 1.43-4.85v-11.46l1.86-5.23 3.67-9.89v-4.01l2.61-9.25 0.83-12.65-1.87-5.93z" fill="#FDDFD6" stroke="#000" stroke-miterlimit="10" stroke-width="1.2"/>
  <path d="m195.2 94.06-1.26-8.02-2.78-10.91-3.92-9.41-4.99-13.63-10.29-11.43-10.46-6.9-6.76-2.65-5.47-3.9-9.06-3.5-10.46-2.42-12.87-1.64h-22.67l-11.47 1.64-9.91 2.1-8.56 3.01-10.79 5.03-8.41 4.99-11.33 9.29-10.93 11-10.63 14.49-4.81 9.55-2.94 12.19-1.68 12.39 0.67 11.74 2.69 10.29 1.71 1.75 3.03-6 3.79-0.41 8.17 1.21 2.3 10.66 3.19 10.05 5.61 11.35 5.96 7.94 3.07-0.01-1.16-6.74 1.02-31.14-7.48-21.74-0.61-10.86 1.71-1.16 13.38-1.16 5.12-0.48 3.3-6.37 3.92-2.02 5.54-0.12s14.57-1.36 22.84-3.79 16.68-5.11 24.62-11.6c7.93-6.49 10.11-9.46 13.61-15.83 3.5-6.38 6.36-12.3 6.36-12.3l-0.34 9.02-0.95 11.09-5.54 14.23-6.12 8.74-10.79 7.94-0.85 1.01s11.12-2.34 16.74-6.69c5.62-4.36 10.61-8.12 12.45-15.02 1.83-6.9 2.44-16.06 2.44-16.06l2.62 5.13 12.07 12.12 4.3 5.03 10.93 16.77 3.19 1.92 20.96 1.01-1.02-0.77z" fill="#473A39" stroke="#000" stroke-miterlimit="10" stroke-width=".7"/>
  <path d="m142.3 51.13 0.6 4.97 2.26 2.96 12.57 12.26-0.91-1.22s-3.3-1.84-6.96-0.99c-3.67 0.85-7.73 0.99-7.29 2.81 0.22 0.89 4.75-1.04 8.45-1.04 2.93 0 5.92 0.96 6.71 1.93 2 2.57 12 16.35 13.67 20.13 0.77 1.89 3.96 1.12 3.96 1.12l-3.07-23.46 3.07 7.2 0.84 15.62 19.48 1.2-0.76-7.53-7.25-23.59-6.19-13.46-11.21-11.83-4.41-2.97-8.66-3.53-4.68-3.5-7.36-3.25-8.41-2.78-13.71-2.16-8.82-1.1h-18.18l-9.32 1.33-12.3 2.41-12.5 4.71-8.78 4.86-14.9 11.59-5.44 2.78-11.6 12.91-7.57 11.69-5.32 12.12-3.21 12.91-2.07 9.42 0.42 11.18 2.88 10.13 1.89 2.15 3.01-6.2 5.54-0.61 6.13 0.81 1.84 1.78 1.45 10.21 3.05 10.12 5.45 11.55 3.13 5.14 1.91 1.99-2.78 0.26-7.93-1.02-7.78-2.96-7.45-7.26-5.54-9.15-0.9-9.73 0.96-4.93-2.18-2.97-3.03-11-0.07-10.01 1.67-11.95 2.78-11.07 4.06-8.98 3.67-6.04 7.05-9.79 10.02-11.1 13.24-10.79 10.63-6.35 11.51-4.74 7.45-1.86 1.42-0.65 12.19-2.16 5.2-0.73h20l7.05 0.73 9.33 1.16 7.83 2.09 10.01 4.02 4.99 3.59 6.06 2.77 9.33 5.68 8.71 7.96 6.76 8.23 5.1 12.55 4.55 10.38 2.18 11.44-0.4 4.99-1.19-0.45-1.62-8.34-5.39-19.39-1.5-3.54" stroke="#000" stroke-miterlimit="10" stroke-width=".7"/>
  <path d="m134.8 38.59-0.91 3.38-5.79 10.88-5.09 7.26-9.49 9-12.87 6.46-13.86 3.55-13.84 2.31-9.33 0.36-5.62 2.82-3.5 6.01-4.51 0.48 3.67-4.18 6.76-4.17 6.55-0.52s11.22-1.12 16.32-2.62c5.09-1.49 14.05-2.59 21.7-6.96s13.1-7.44 18.02-14.19c4.93-6.74 9.68-16.49 11.79-19.87z" fill="#000"/>
  <path d="m141.8 52.09 1.07 4.7s-0.46 11.35-4.4 18.13c-3.93 6.79-14.68 12.87-20.38 14.49-4.57 1.34-12.64 3.09-12.64 1.85 0-1.25 2.45-1.25 7.38-4.58 4.93-3.32 11.26-7.96 14.38-14.67 3.12-6.72 6.43-12.3 6.56-19.08 0.1-4.96 0.12-7.7 0.12-7.7l0.91-6.64 0.61-0.47-0.35 9.16-1.24 9.63-4.99 12.99-3.84 6.32s5.82-9.01 7.7-15.99c1.48-5.85 1.08-13.19 1.08-13.19" stroke="#000" stroke-miterlimit="10" stroke-width=".7"/>
  <path d="m76.38 44.51c-2.62 0.56-10.89 5.41-13.95 13.35-1.52 4.26-10.15 9.96-12.77 11.05-2.62 1.1-10.39 3.87-13.69 4.42s-11.57 1.44-13.85 1.44c-2.29 0-0.93 1.04 1.05 2.14 2.62 1.41 7.54 2.82 9.5 2.94 3.19 0.2 6.25 0.2 7.74 0s6.21-0.97 7.54-1.13 1.01 0 1.01 0-5.29 0.89-6.74 2.03-3.51 3.34-6.81 4.73c-3.3 1.4-7.79 3.24-9.23 3.68-1.45 0.45 0 0.81 1.44 1.25 1.45 0.45 5.27 1.37 7.79 1.13s5.2-0.56 5.2-0.56l-4.38 0.44-1.32 0.6-0.35 3.09 0.35 8.81 8.3 20.19 4 7.94 4.49 4.62 5.32 2.88s6.45 1.76 14.99 2.19c8.53 0.44 15.3-1.01 18.6-2.19 3.3-1.19 7.91-3.48 9.68-5.14s6.82-10.66 8.62-15.4 4.36-8.75 9.35-8.43c3.87 0.25 5.95 7.03 8.35 12.53 2.62 6.12 6.55 12.11 13.07 15.5 5.54 2.97 14.11 3.7 18.35 3.37 5.1-0.4 12.81-0.67 18.16-3.37 5.1-2.58 9.17-6.2 12.09-13.39 2.62-6.7 9.07-17.16 10-19.09s1.11-9.9 0-10.62c-1.97-1.29-18.01-1.93-22.09-2.33-5.88-0.56-16.01-0.8-21.97 0-8.16 1.08-23.81 5.26-31.19 6.69-5.96 1.14-9.12-0.71-14.12-2.12-5.62-1.6-12.99-4.17-22.85-5.57-8.54-1.24-20.15-1.44-24.87-1.28s-12.07 0.24-15.13 0.36c-2.42 0.1-9.4 0.52-10.65 0.76" fill="#231F36" stroke="#000" stroke-miterlimit="10" stroke-width=".7"/>
  <path d="m41.61 98.71c-2.2 0-3 0.4-3 0.8s1.3 0.8 3 0.8c2.21 0 3.35-0.4 3.35-0.92s-0.98-0.68-3.35-0.68z" fill="#F0E8D9"/>
  <path d="m192.1 100.1c-2.02 0-2.77 0.37-2.77 0.75 0 0.37 0.94 0.75 2.17 0.75 1.77 0 2.97-0.33 2.97-0.82 0-0.48-0.57-0.68-2.37-0.68z" fill="#F0E8D9"/>
  <path d="m107.4 99.03c1.54 0 6.84 3.38 10.41 3.14 3.58-0.24 8.43-3.14 9.45-2.54s-3.54 8.15-7.11 8.15c-4.81 0-6.99-5.61-12.75-8.75z" fill="url(#paint0_linear_414_7224)" fill-opacity=".53"/>
  <path d="m46.06 110.1c0.64-8.49 5.32-13.39 20.05-14.55 12.31-0.96 21.2 0.4 29.92 2.52 7.38 1.88 11.79 6.74 11.14 15.5-0.66 8.76-7.78 22.54-20.16 25.08-9.23 2.04-20.15 0.68-26.91-1.94-9.22-3.59-14.93-14.38-14.04-26.61z" fill="#fff"/>
  <path d="m130 112.7c0.65-7.99 4.41-11.93 17-14.25 9.7-1.88 14.1-2.36 23.59-0.96 10.82 1.68 15.21 1.68 17.55 8.98 1.56 5.29-0.24 14.01-1.04 18.32-1.3 5.24-7.26 13.27-16.51 14.61-8.66 1.31-17.48 0.68-24.66-2.75-8.41-3.96-16.56-15.49-15.93-23.95z" fill="#fff"/>
  <path d="m14.61 124.8c-5.18 0.8-6.31 6.48-6 13.8 0.38 9.2 5.3 17.2 13.64 22.33 4.93 3.13 12.7 3.58 15.56 2.68l1.91-0.8-5.04-6.37-7.36-13.04-4.93-17.8s-3.3-1.5-7.78-0.8z" fill="#FDDFD6" stroke="#000" stroke-miterlimit="10" stroke-width="1.2"/>
  <path d="m14.88 136.3c1.64 0 3.38 0.76 5.43 1.65 2.62 1.16 4.65 2.22 6.1 3.94" stroke="#000" stroke-miterlimit="10" stroke-width="1.2"/>
  <path d="m104.4 148.4v11" stroke="#000" stroke-miterlimit="10" stroke-width="2.5"/>
  <path d="m128 148.4v10.6" stroke="#000" stroke-miterlimit="10" stroke-width="2.5"/>
  <path d="m105.5 153.5c2.95-0.37 6.07-0.49 9.64-0.49 4.06 0 7.7 0.2 11.1 0.65" stroke="#000" stroke-miterlimit="10" stroke-width="2.5"/>
  <defs>
    <linearGradient id="paint0_linear_414_7224" x1="117.1" x2="117.9" y1="97.67" y2="105.5" gradientUnits="userSpaceOnUse">
      <stop stop-color="#B5A4B9" offset="0"/>
      <stop stop-color="#B5A4B9" stop-opacity=".15" offset="1"/>
    </linearGradient>
  </defs>
</svg>
<svg
						xmlns="http://www.w3.org/2000/svg"
						width="800"
						height="800"
						fill="none"
						viewBox="0 0 200 200"
					>
						{/* <!-- SVG created with Arrow, by QuiverAI (https://quiver.ai) --> */}
						<path
							d="m196.2 94.18-1.71-11.43-1.33-5.56-4.07-11.27-6.12-15.11-12.87-13.17-5.96-3.05-7.05-2.88-5.96-3.5-3.67-1.49-7.77-3.21-4.25-1.33-9.22-1.93-11.1-1.33h-20.56l-7.37 0.98-9.76 1.5-3.79 1.5-4.75 0.97-9.23 3.5-9.49 4.86-4.99 3.34-6.6 4.85-7.6 6.9-9.39 10.3-9.22 12.4-4.06 7.65-3.19 6.74-1.33 7.13-1.32 5.82v14.38l1.32 8.76 2.18 6.9 0.77 2.41-0.61 10.13 1.49 6.37 3.35 6.9 6.45 6.2 6.45 4.13 8.41 1.62h5.96l3.19-0.64 5.96 3.5 10.13 3.67 12.87 3.5 14.23 2.88 20 1.49h18l16.2-1.49 13.38-1.49 10.63-2.77 11.1-5.11 7.78-5.56 5.96-5.69 1.43-4.85v-11.46l1.86-5.23 3.67-9.89v-4.01l2.61-9.25 0.83-12.65-1.87-5.93z"
							fill="#FDDFD6"
							stroke="#000"
							stroke-miterlimit="10"
							stroke-width="1.2"
						/>
						<path
							d="m195.2 94.06-1.26-8.02-2.78-10.91-3.92-9.41-4.99-13.63-10.29-11.43-10.46-6.9-6.76-2.65-5.47-3.9-9.06-3.5-10.46-2.42-12.87-1.64h-22.67l-11.47 1.64-9.91 2.1-8.56 3.01-10.79 5.03-8.41 4.99-11.33 9.29-10.93 11-10.63 14.49-4.81 9.55-2.94 12.19-1.68 12.39 0.67 11.74 2.69 10.29 1.71 1.75 3.03-6 3.79-0.41 8.17 1.21 2.3 10.66 3.19 10.05 5.61 11.35 5.96 7.94 3.07-0.01-1.16-6.74 1.02-31.14-7.48-21.74-0.61-10.86 1.71-1.16 13.38-1.16 5.12-0.48 3.3-6.37 3.92-2.02 5.54-0.12s14.57-1.36 22.84-3.79 16.68-5.11 24.62-11.6c7.93-6.49 10.11-9.46 13.61-15.83 3.5-6.38 6.36-12.3 6.36-12.3l-0.34 9.02-0.95 11.09-5.54 14.23-6.12 8.74-10.79 7.94-0.85 1.01s11.12-2.34 16.74-6.69c5.62-4.36 10.61-8.12 12.45-15.02 1.83-6.9 2.44-16.06 2.44-16.06l2.62 5.13 12.07 12.12 4.3 5.03 10.93 16.77 3.19 1.92 20.96 1.01-1.02-0.77z"
							fill="#473A39"
							stroke="#000"
							stroke-miterlimit="10"
							stroke-width=".7"
						/>
						<path
							d="m76.38 44.51c-2.62 0.56-10.89 5.41-13.95 13.35-1.52 4.26-10.15 9.96-12.77 11.05-2.62 1.1-10.39 3.87-13.69 4.42s-11.57 1.44-13.85 1.44c-2.29 0-0.93 1.04 1.05 2.14 2.62 1.41 7.54 2.82 9.5 2.94 3.19 0.2 6.25 0.2 7.74 0s6.21-0.97 7.54-1.13 1.01 0 1.01 0-5.29 0.89-6.74 2.03-3.51 3.34-6.81 4.73c-3.3 1.4-7.79 3.24-9.23 3.68-1.45 0.45 0 0.81 1.44 1.25 1.45 0.45 5.27 1.37 7.79 1.13s5.2-0.56 5.2-0.56l-4.38 0.44-1.32 0.6-0.35 3.09 0.35 8.81 8.3 20.19 4 7.94 4.49 4.62 5.32 2.88s6.45 1.76 14.99 2.19c8.53 0.44 15.3-1.01 18.6-2.19 3.3-1.19 7.91-3.48 9.68-5.14s6.82-10.66 8.62-15.4 4.36-8.75 9.35-8.43c3.87 0.25 5.95 7.03 8.35 12.53 2.62 6.12 6.55 12.11 13.07 15.5 5.54 2.97 14.11 3.7 18.35 3.37 5.1-0.4 12.81-0.67 18.16-3.37 5.1-2.58 9.17-6.2 12.09-13.39 2.62-6.7 9.07-17.16 10-19.09s1.11-9.9 0-10.62c-1.97-1.29-18.01-1.93-22.09-2.33-5.88-0.56-16.01-0.8-21.97 0-8.16 1.08-23.81 5.26-31.19 6.69-5.96 1.14-9.12-0.71-14.12-2.12-5.62-1.6-12.99-4.17-22.85-5.57-8.54-1.24-20.15-1.44-24.87-1.28s-12.07 0.24-15.13 0.36c-2.42 0.1-9.4 0.52-10.65 0.76"
							fill="#231F36"
							stroke="#000"
							stroke-miterlimit="10"
							stroke-width=".7"
						/>
						<path
							d="m41.61 98.71c-2.2 0-3 0.4-3 0.8s1.3 0.8 3 0.8c2.21 0 3.35-0.4 3.35-0.92s-0.98-0.68-3.35-0.68z"
							fill="#F0E8D9"
						/>
						<path
							d="m192.1 100.1c-2.02 0-2.77 0.37-2.77 0.75 0 0.37 0.94 0.75 2.17 0.75 1.77 0 2.97-0.33 2.97-0.82 0-0.48-0.57-0.68-2.37-0.68z"
							fill="#F0E8D9"
						/>
						<path
							d="m107.4 99.03c1.54 0 6.84 3.38 10.41 3.14 3.58-0.24 8.43-3.14 9.45-2.54s-3.54 8.15-7.11 8.15c-4.81 0-6.99-5.61-12.75-8.75z"
							fill="url(#paint0_linear_414_7224)"
							fill-opacity=".53"
						/>
						<path
							d="m46.06 110.1c0.64-8.49 5.32-13.39 20.05-14.55 12.31-0.96 21.2 0.4 29.92 2.52 7.38 1.88 11.79 6.74 11.14 15.5-0.66 8.76-7.78 22.54-20.16 25.08-9.23 2.04-20.15 0.68-26.91-1.94-9.22-3.59-14.93-14.38-14.04-26.61z"
							fill="#fff"
						/>
						<path
							d="m130 112.7c0.65-7.99 4.41-11.93 17-14.25 9.7-1.88 14.1-2.36 23.59-0.96 10.82 1.68 15.21 1.68 17.55 8.98 1.56 5.29-0.24 14.01-1.04 18.32-1.3 5.24-7.26 13.27-16.51 14.61-8.66 1.31-17.48 0.68-24.66-2.75-8.41-3.96-16.56-15.49-15.93-23.95z"
							fill="#fff"
						/>
						<path
							d="m14.61 124.8c-5.18 0.8-6.31 6.48-6 13.8 0.38 9.2 5.3 17.2 13.64 22.33 4.93 3.13 12.7 3.58 15.56 2.68l1.91-0.8-5.04-6.37-7.36-13.04-4.93-17.8s-3.3-1.5-7.78-0.8z"
							fill="#FDDFD6"
							stroke="#000"
							stroke-miterlimit="10"
							stroke-width="1.2"
						/>
						<path
							d="m14.88 136.3c1.64 0 3.38 0.76 5.43 1.65 2.62 1.16 4.65 2.22 6.1 3.94"
							stroke="#000"
							stroke-miterlimit="10"
							stroke-width="1.2"
						/>
						<path
							d="m104.4 148.4v11"
							stroke="#000"
							stroke-miterlimit="10"
							stroke-width="2.5"
						/>
						<path
							d="m128 148.4v10.6"
							stroke="#000"
							stroke-miterlimit="10"
							stroke-width="2.5"
						/>
						<path
							d="m105.5 153.5c2.95-0.37 6.07-0.49 9.64-0.49 4.06 0 7.7 0.2 11.1 0.65"
							stroke="#000"
							stroke-miterlimit="10"
							stroke-width="2.5"
						/>
						<defs>
							<linearGradient
								id="paint0_linear_414_7224"
								x1="117.1"
								x2="117.9"
								y1="97.67"
								y2="105.5"
								gradientUnits="userSpaceOnUse"
							>
								<stop stop-color="#B5A4B9" offset="0" />
								<stop
									stop-color="#B5A4B9"
									stop-opacity=".15"
									offset="1"
								/>
							</linearGradient>
						</defs>
					</svg>