<?xml version="1.0" encoding="utf-8"?>
<svg xmlns="http://www.w3.org/2000/svg" xmlns:xlink="http://www.w3.org/1999/xlink" width="1000"
        height="600" viewBox="0 0 1000 600">
        <path fill="#040404"
                d="M694.663 386.147C686.781 381.66 682.428 377.034 680.24 367.997C675.828 349.77 678.457 333.143 673.15 314.535C670.4 301.47 660.174 292.172 654.336 281.269C643.14 260.359 645.037 225.52 656.942 205.276C688.24 152.053 782.229 163.14 796.129 225.449C800.492 245.004 801.545 265.006 790.957 282.767C782.65 296.196 777.062 305.769 773.264 321.378C771.671 328.073 770.574 334.877 769.98 341.734C768.321 361.052 773.366 375.592 753.764 386.341C755.796 386.496 757.899 386.388 759.444 387.603L759.969 388.578C756.95 394.892 728.162 394.407 721.679 393.473C719.875 393.213 709.289 391.604 708.409 391.841C721.744 396.967 737.31 397.607 751.269 395.942C753.424 395.685 757.696 394.575 759.24 395.93C757.687 400.716 730.04 404.758 724.852 405.314C735.003 406.413 745.674 404.075 755.801 403.315C756.883 403.234 757.827 403.312 758.682 403.973C755.934 409.005 719.937 412.442 713.478 414.552C725.726 415.317 738.05 413.582 750.054 411.318C752.088 410.934 756.226 409.819 758.05 410.168L758.527 410.818C755.605 417.734 724.037 422.503 716.353 423.257C722.928 423.888 727.574 423.926 734.21 423.163C738.516 422.662 742.783 421.874 746.983 420.802C749.308 420.225 754.18 418.117 755.909 419.606C755.726 424.526 738.451 429.841 734.378 431.105C739.195 430.734 750.198 427.195 752.183 428.332C752.429 433.1 737.4 437.679 733.288 438.874C752.59 444.452 775.531 443.339 795.744 443.322L845.568 443.301L1000 443.322L1000 445.112C945.305 444.409 889.004 445.114 834.176 445.105L793.27 445.098C783.547 445.121 735.771 445.913 731.893 438.996C732.572 437.364 746.472 432.029 750.44 429.431C744.899 431.067 722.472 436.284 718.123 431.883C718.586 430.194 721.345 430.563 722.997 430.55C734.849 430.46 744.29 426.542 754.294 420.575C742.523 423.864 732.003 426.123 719.669 425.212C717.264 425.034 712.027 424.724 710.539 422.993C711.007 422.242 711.006 421.947 712.181 421.857C724.133 420.94 743.287 418.438 753.725 412.189C741.442 415.116 728.848 416.535 716.222 416.414C713.581 416.376 708.395 416.502 706.674 414.726C707.294 413.775 707.439 413.632 708.843 413.338C718.192 411.374 739.046 409.772 747.279 406.098L747.732 405.891C741.194 406.729 709.346 409.135 704.287 405.839L704.284 405.083C706.17 404.335 709.277 404.52 711.402 404.466C725.695 404.106 740.39 402.157 753.928 397.371C737.367 398.957 724.667 399.308 708.533 393.715C705.679 392.726 699.508 390.904 698.263 388.363C699.823 387.085 701.658 388.042 703.523 388.505C721.867 393.054 741.525 394.339 759.758 388.515C758.419 388.366 753.401 387.798 752.36 387.916C742.363 389.043 732.376 391.959 722.604 387.585C718.531 385.761 715.902 383.103 714.964 378.605C714.072 374.33 713.988 369.874 713.828 365.466C713.538 358.035 713.381 350.6 713.358 343.165C713.353 339.611 713.563 330.533 713.126 327.339C712.399 322.028 708.603 312.225 706.654 306.654L693.32 269.157C692.617 267.2 692.432 266.53 693.223 264.846C695.589 264.57 697.428 267.812 699.96 268.028C702.455 268.241 701.438 264.68 703.961 262.826C708.641 261.898 707.795 265.217 711.896 266.545C715.504 265.554 713.944 261.533 718.69 261.436C720.892 262.452 722.978 265.369 724.744 267.323C726.572 264.933 728.187 261.343 731.297 261.132C733.895 261.798 735.643 264.415 737.4 266.497C739.43 264.441 741.028 261.838 743.975 262.431C745.484 263.632 746.321 266.049 747.132 267.878C748.679 266.471 751.115 263.935 752.975 263.352C754.108 264.008 753.732 263.668 754.32 265.048C753.844 273.03 738.244 314.871 735.331 325.128C735.015 326.24 733.745 327.772 732.918 328.66C736.269 341.615 733.861 354.31 733.703 367.542C733.552 380.096 738.175 383.629 749.878 385.935C772.374 376.975 766.414 360.411 768.369 340.313C769.066 332.459 770.516 324.69 772.699 317.113C774.875 309.283 777.992 301.746 781.984 294.668C785.029 289.325 788.621 283.751 791.433 278.349C800.096 261.708 798.536 237.797 792.825 220.474C787.081 203.05 775.127 189.338 758.499 181.282C738.684 171.682 714.817 170.498 693.986 177.54C677.319 183.175 664.264 194.05 656.514 209.708C647.013 228.902 645.126 262.904 656.484 281.472C664.77 295.018 670.816 299.123 675.401 316.117C680.38 334.565 677.273 352.711 682.826 370.422C685.065 377.563 689.658 381.689 696.282 384.874C696.608 399.846 698.368 417.538 709.638 428.672C713.564 432.55 725.862 435.554 727.353 440.056C722.452 446.766 673.608 445.099 663.676 445.099L601.725 445.103L412.722 445.104L145.626 445.074C108.106 445.013 69.179 445.687 31.7798 445.011C31.6325 447.281 31.5122 450.737 31.144 452.888C30.6038 452.548 30.1882 452.346 29.6263 452.058L28.7843 453.131C26.1553 453.732 24.1882 447.609 19.5324 447.596C17.0208 449.877 19.1691 451.134 17.7812 453.656C14.8758 450.261 15.6942 448.87 18.0486 445.875L17.9205 445.362C15.2431 444.807 3.39522 445.106 0 445.13L0 443.286L16.1744 443.317C16.1835 441.021 15.4261 437.402 16.5019 435.706C18.0036 435.049 18.0604 435.413 19.9275 435.896C27.1337 435.693 31.3635 434.458 31.6946 442.916L94.788 442.887C100.756 442.886 119.568 442.535 124.148 443.256C154.855 444.044 188.249 443.296 219.307 443.306L413.845 443.314L601.725 443.307L664.824 443.314C675.103 443.316 718.553 444.484 725.34 439.737L725.24 439.054C722.304 436.869 717.411 435.733 713.943 433.705C697.628 424.168 695.037 403.245 694.663 386.147Z" />

        <path fill="white"
                d="M730.351 262.317C733.919 263.117 734.076 267.564 738.471 267.334C740.503 266.419 741.6 264.698 743 262.939C744.195 265.921 744.538 268.314 748.025 268.632C750.126 267.998 751.469 266.417 753.074 264.884C751.559 271.129 734.576 324.317 732.798 326.188C732.672 326.319 732.248 326.688 732.105 326.727C731.991 326.758 724.828 324.172 722.922 324.189C721.928 324.199 720.685 324.411 720.004 325.214C719.169 326.2 719.291 327.336 719.402 328.539C721.83 332.083 727.945 330.935 731.485 329.84C735.509 344.781 730.012 361.507 733.033 376.445C734.253 382.478 739.918 384.835 745.138 386.835L745.01 387.213L743.669 387.455C734.951 389.117 717.858 388.79 716.472 377.546C714.464 361.247 715.523 344.124 714.912 327.707C714.655 325.553 714.133 322.98 713.404 320.954C706.931 302.967 701.277 284.207 694.158 266.493C700.762 272.058 701.999 270.764 705.095 263.598C712.264 269.714 712.982 270.186 717.868 262.201C723.747 269.314 724.968 270.6 730.351 262.317Z" />
</svg>