<?xml version="1.0" encoding="UTF-8" standalone="no"?>
<!-- Created with Inkscape (http://www.inkscape.org/) -->

<svg
   version="1.1"
   id="svg1"
   width="320"
   height="98.239998"
   viewBox="0 0 320 98.239998"
   xmlns="http://www.w3.org/2000/svg"
   xmlns:svg="http://www.w3.org/2000/svg">
  <defs
     id="defs1" />
  <g
     id="g1">
    <path
       style="fill:#000000"
       d="m 0.7346462,98.304195 c -0.002,-0.21493 0.64496,-1.48683 1.43696,-2.82644 0.792,-1.33961 1.44,-2.55959 1.44,-2.71107 0,-0.15148 0.26864,-0.46358 0.59699,-0.69356 0.32834,-0.22998 0.58228,-0.49014 0.5643,-0.57814 -0.018,-0.088 0.41737,-0.952 0.96743,-1.92 1.92636,-3.39001 5.0965898,-7.53667 7.9761598,-10.4328 2.3663,-2.3799 3.40457,-3.16587 5.6,-4.23922 7.10014,-3.47124 11.69597,-2.3403 27.20502,6.69464 25.87605,15.07433 34.28194,15.55721 66.285414,3.80781 l 6.3153,-2.31853 0.0847,-9.44927 0.0847,-9.44927 7.52,-5.13693 c 7.28598,-4.97708 7.58006,-5.14222 9.45001,-5.30669 l 1.93002,-0.16974 -0.7076,-7.52 c -1.02409,-10.8836 -0.99536,-11.47299 0.57118,-11.71862 0.41602,-0.0652 1.54839,-0.26293 2.51639,-0.43934 2.36753,-0.43146 21.60055,-2.24204 23.8162,-2.24204 1.45756,0 1.82284,0.11502 2.11826,0.66702 0.19634,0.36686 0.71327,4.86686 1.14874,10 0.43547,5.13314 0.86242,9.80098 0.94878,10.37298 l 0.15702,1.04 h 11.1097 11.10971 l 2.55579,-2.26487 c 7.76616,-6.88213 10.80541,-8.84494 20.02577,-12.93302 3.00128,-1.3307 4.21031,-1.73573 3.72119,-1.24661 -0.10753,0.10753 -2.05048,1.01822 -4.31768,2.02375 -7.88121,3.49543 -11.92237,6.0698 -17.79904,11.33865 -1.60294,1.43715 -4.71444,4.13762 -6.91444,6.00104 -4.95827,4.19969 -6.55239,5.9176 -7.58582,8.17491 -0.6453,1.40954 -0.77933,2.11739 -0.66406,3.50731 0.0794,0.95775 0.31112,1.90808 0.51489,2.11184 0.48507,0.48507 9.88362,-1.03415 13.59874,-2.19816 5.48921,-1.71985 9.46514,-4.58026 11.24288,-8.08846 1.46309,-2.88727 1.61611,-2.1051 1.59178,8.13639 l -0.0216,9.08802 3.4018,-3.28656 c 3.99773,-3.86231 6.73554,-5.88887 9.98205,-7.38885 9.18292,-4.24277 22.6494,-3.96927 27.38011,0.55607 1.07544,1.02876 2.31922,3.81777 2.31922,5.20055 0,0.4334 0.11324,0.788 0.25164,0.788 0.1384,0 0.65792,-2.484 1.15448,-5.52 1.44936,-8.86151 2.16592,-12.4 2.51107,-12.4 0.19268,0 0.24003,0.41392 0.11744,1.02684 -0.59209,2.96044 -1.17083,8.81833 -0.98529,9.9729 0.32647,2.03155 0.92576,2.76026 2.27004,2.76026 1.52054,0 2.96785,-1.45274 3.98509,-4 0.69756,-1.74679 0.76649,-2.38189 0.76408,-7.04 -0.003,-5.08409 -0.0111,-5.14469 -1.21041,-8.64 -2.19756,-6.40479 -4.36099,-9.16334 -9.10925,-11.615 -5.07793,-2.62188 -9.84349,-3.905 -14.5033,-3.905 -3.45853,0 -6.51833,0.59385 -11.67362,2.26565 -5.36757,1.74063 -6.25993,1.64303 -4.91243,-0.53727 2.54392,-4.11614 12.04209,-7.76658 16.14714,-6.20584 0.46659,0.1774 0.79925,0.2134 0.73924,0.08 -0.06,-0.1334 -0.32113,-0.79307 -0.58026,-1.46594 -0.41141,-1.06827 -0.57351,-1.20002 -1.2784,-1.03905 -3.08926,0.70545 -4.70508,0.82621 -6.92457,0.51751 -4.02806,-0.56025 -5.80618,-1.59665 -8.3003,-4.83794 -1.86348,-2.42174 -2.71147,-2.50297 -3.10195,-0.29712 -0.31543,1.78185 0.0876,3.52672 1.54129,6.67307 1.2936,2.79982 1.33403,3.23958 0.37827,4.11437 -1.12269,1.02757 -1.95238,1.14798 -2.8804,0.418 -1.35084,-1.06257 -2.18583,-4.05071 -2.46053,-8.80544 -0.13219,-2.288 -0.34996,-4.412 -0.48394,-4.72 -0.22779,-0.52365 -1.39292,-0.56 -17.95048,-0.56 -10.7431,0 -17.78021,0.11865 -17.89334,0.30169 -0.10255,0.16593 -0.27828,5.84866 -0.39052,12.62829 l -0.20407,12.32659 0.7812,0.29701 c 0.42965,0.16336 4.80889,0.39854 9.73164,0.52263 7.27684,0.18344 9.01946,0.31313 9.31954,0.69361 0.43144,0.54703 0.21458,2.40377 -0.32064,2.74528 -0.66484,0.42421 -20.83308,0.29228 -21.26446,-0.1391 -0.28816,-0.28816 -0.384,-4.2761 -0.384,-15.97844 0,-15.4321 0.007,-15.5966 0.65496,-15.80231 0.36022,-0.11433 7.98716,-0.16011 16.94875,-0.10174 14.15114,0.0922 16.35665,0.043 16.77186,-0.37369 0.31099,-0.31213 0.59158,-1.6541 0.80284,-3.83982 0.37893,-3.92044 0.65358,-4.98406 1.78593,-6.91628 2.12329,-3.62311 9.82932,-6.21425996 15.74568,-5.29445996 5.85515,0.91027996 9.42908,4.23066996 10.81159,10.04460996 1.06857,4.49368 0.90263,11.7796 -0.31861,13.98895 -1.28988,2.33353 -1.28754,2.06033 -0.0401,4.68701 1.20683,2.54125 1.27584,3.52286 0.13783,1.96062 -1.41426,-1.94147 -3.59965,-2.28323 -7.56806,-1.18353 -3.43057,0.95066 -6.36054,2.49576 -8.27803,4.36536 -1.51204,1.47427 -2.15508,2.66772 -1.43739,2.66772 0.14147,0 1.99337,-0.56602 4.11532,-1.25783 8.1929,-2.67106 13.34609,-3.07775 19.14746,-1.51111 4.71128,1.27227 10.07294,3.99067 12.33747,6.25521 3.26158,3.26158 5.84521,10.00743 6.26709,16.36335 l 0.20242,3.04963 4.75651,3.15637 4.75651,3.15638 v 9.866 9.866 l 1.04,-0.18369 c 8.16321,-1.44185 11.80077,-3.12982 22.53526,-10.45726 3.02239,-2.0631 6.62239,-4.28929 8,-4.94707 2.31876,-1.10718 2.71858,-1.19598 5.38474,-1.19598 2.68112,0 3.02181,0.0769 4.93346,1.11308 2.05902,1.11609 7.37012,5.54132 7.64188,6.36724 0.0797,0.24217 -1.27717,-0.81037 -3.01523,-2.339 -4.19858,-3.69265 -6.47249,-4.82132 -9.71338,-4.82132 -2.10832,0 -2.70929,0.14449 -4.84688,1.1653 -1.34209,0.64092 -5.53422,3.25732 -9.31586,5.81424 -9.28838,6.28023 -12.69926,7.92301 -19.45695,9.37102 -3.72001,0.79712 -11.1571,0.80119 -14.04419,0.008 -4.71509,-1.2959 -7.00923,-3.32027 -8.68384,-7.66266 -2.54269,-6.59343 -4.71802,-9.56527 -7.91587,-10.81433 -1.51705,-0.59255 -2.63751,-0.73529 -6.67375,-0.8502 -10.95202,-0.31179 -17.56277,2.01729 -24.34158,8.57597 -4.62616,4.47594 -6.32131,5.85465 -8.40781,6.83833 -1.91698,0.90377 -2.42231,0.99371 -6.44767,1.14763 -4.96802,0.18997 -5.57224,0.45824 -5.91921,2.62809 -0.10845,0.67821 -0.3422,1.32273 -0.51944,1.43227 -0.45453,0.28091 0.0152,-2.10942 0.58999,-3.00209 0.79482,-1.23446 1.71492,-1.47386 5.97609,-1.55492 5.48678,-0.10438 6.69647,-0.65999 11.85299,-5.44413 5.75663,-5.3409 7.52627,-6.73467 10.30725,-8.11796 4.79485,-2.38502 13.13447,-3.64865 19.38751,-2.93761 5.08441,0.57816 7.07878,1.74247 9.61452,5.61297 1.34239,2.04899 1.57593,1.75933 0.76716,-0.95153 -1.34901,-4.52167 -5.84223,-6.60608 -14.24919,-6.6102 -4.35925,-0.002 -8.14618,0.57568 -11.70274,1.7856 -4.68928,1.59527 -7.73347,3.64319 -12.74235,8.5722 -1.77318,1.7449 -3.4314,3.13244 -3.68493,3.08343 -0.39057,-0.0755 -0.44872,-1.46949 -0.38084,-9.12911 0.0441,-4.972 -5.5e-4,-9.04 -0.0991,-9.04 -0.22173,0 -1.61929,2.75134 -1.95055,3.84 -0.68208,2.24161 -1.11811,2.51611 -11.35946,7.15144 -6.36366,2.88024 -9.49698,3.27143 -11.91056,1.48699 l -0.96871,-0.7162 -6.44036,0.70167 c -3.54221,0.38591 -6.98037,0.78181 -7.64037,0.87978 l -1.2,0.17812 -0.0707,7.2391 -0.0707,7.2391 -0.16926,-7.2 -0.16926,-7.2 -1.12,0.10101 c -3.13355,0.28262 -13.2101,1.81256 -17.44,2.64795 -6.75384,1.33386 -12.44065,2.86204 -19.76,5.30998 l -6.32,2.11372 v 1.87367 c 0,1.03578 -0.1431,1.87367 -0.32,1.87367 -0.176,0 -0.32,-0.77452 -0.32,-1.72117 v -1.72117 l -6.48,2.37089 c -17.253684,6.31274 -23.977984,7.91717 -33.200004,7.92159 -4.79473,0.002 -6.03714,-0.10486 -8.64,-0.7452 -6.9898,-1.71958 -12.39323,-4.1493 -23.68,-10.64799 -8.53142,-4.91222 -11.6102,-6.50875 -15.04,-7.79912 -2.08337,-0.78382 -2.86438,-0.90524 -5.92,-0.92038 -3.39985,-0.0169 -3.60192,0.0219 -5.92,1.13409 -2.97635,1.42807 -5.49656,3.46685 -8.19534,6.6298 -1.91359,2.24271 -6.8446598,9.30872 -6.8446598,9.8081 0,0.11838 -0.432,0.84314 -0.96,1.61056 -0.528,0.76742 -0.96,1.47158 -0.96,1.56479 0,0.0932 -0.57463,1.07527 -1.27696,2.18235 -0.70233,1.10707 -1.27833,1.83701 -1.28,1.62208 z m 263.6023638,-20.48921 -0.0854,-8.24 -4.96,-0.0367 c -5.66782,-0.042 -7.55079,-0.14211 -6.5043,-0.34593 0.66241,-0.129 0.67389,-0.18769 0.24,-1.22614 -0.25063,-0.59986 -0.4557,-1.47927 -0.4557,-1.95426 0,-1.69119 -0.31964,-0.48991 -1.10814,4.16461 -0.43974,2.59578 -0.87539,4.84235 -0.96811,4.99238 -0.34799,0.56305 1.89313,5.51147 3.13518,6.92251 1.97874,2.24796 5.90384,3.86039 9.58647,3.93811 l 1.20541,0.0254 z m 5.44,0 -0.0854,-8.24 h -2.4 -2.4 l -0.0854,8.24 -0.0854,8.24 h 2.5708 2.57081 z m -135.15799,0.22511 c 5.89749,-1.68002 13.84901,-3.27306 22.27259,-4.46219 3.784,-0.53417 7.06,-1.03684 7.28,-1.11703 0.22974,-0.0837 0.4,-0.69491 0.4,-1.43585 v -1.29004 h -22.4 -22.4 v 6.53687 6.53687 l 5.2,-1.75085 c 2.86,-0.96296 7.20133,-2.32097 9.64741,-3.01778 z m 45.15259,-7.66511 c 0,-0.41044 -1.07818,-0.49245 -7.44,-0.5659 l -7.44,-0.0859 v 1.23256 c 0,0.67792 0.0681,1.30066 0.1513,1.38387 0.0832,0.0832 3.43122,-0.21678 7.44,-0.66667 5.90197,-0.66234 7.2887,-0.90929 7.2887,-1.29796 z m 8.37149,1.63146 c 1.02768,-0.33469 3.81251,-1.49403 6.18851,-2.5763 2.376,-1.08227 5.03338,-2.28443 5.90528,-2.67147 1.55608,-0.69073 3.69472,-2.49775 3.69472,-3.1218 0,-0.17423 -0.756,0.28537 -1.68,1.02131 -2.14872,1.71142 -6.09237,3.56964 -9.36,4.41038 -2.78722,0.71713 -9.67873,1.94642 -10.9118,1.94642 -1.09334,0 -0.95009,0.59184 0.2718,1.12292 1.45631,0.63297 3.69788,0.58296 5.89149,-0.13146 z m -8.94503,-2.85997 c 0.18258,-0.11632 0.26197,-0.67949 0.17643,-1.25149 l -0.15553,-1.04 h -29.72368 -29.72368 v 1.09653 c 0,0.77331 0.16507,1.14117 0.56,1.24796 0.87479,0.23653 58.49342,0.18465 58.86646,-0.053 z m 90.65354,-1.33149 v -1.28 h -5.44 c -3.11195,0 -5.44,0.12643 -5.44,0.29545 0,0.16249 -0.3728,0.73849 -0.82845,1.28 l -0.82844,0.98455 h 6.26844 6.26845 z m -112.35547,-1.42214 c -0.0782,-0.0782 -3.55241,-1.01554 -7.72052,-2.08305 -8.98739,-2.30178 -9.20401,-2.37637 -9.20401,-3.16957 0,-0.34024 -0.28167,-0.68426 -0.63615,-0.77695 -0.81927,-0.21425 -1.15104,-1.12994 -1.43369,-3.95699 l -0.22883,-2.28869 -1.81066,0.0651 c -1.77634,0.0639 -1.95175,0.16148 -9.25067,5.14807 -7.1878,4.91067 -7.44,5.11892 -7.44,6.14359 v 1.06062 h 18.93333 c 10.41334,0 18.86938,-0.064 18.7912,-0.14213 z m 22.26572,-0.73786 c 0.26997,-1.08165 1.27248,-2.73583 2.51724,-4.15353 0.51572,-0.58738 0.88252,-1.12 0.8151,-1.18359 -0.2356,-0.2222 -21.47205,5.39459 -22.35713,5.9132 -0.29103,0.17053 3.37747,0.28835 9.15985,0.29419 l 9.64531,0.01 z m 89.12362,0.32 c -0.008,-0.32916 -7.73606,-5.39407 -7.96798,-5.22243 -0.10224,0.0757 -0.35178,0.93966 -0.55454,1.92 -0.20276,0.98033 -0.47037,2.17843 -0.59469,2.66243 l -0.22604,0.88 h 4.67469 c 2.57108,0 4.67193,-0.108 4.66856,-0.24 z m -107.1541,-0.57954 c 0.77013,-0.27474 5.79223,-1.63805 11.16023,-3.02957 11.72471,-3.03934 11.2,-2.8906 11.2,-3.17488 0,-0.48592 -0.42877,-0.62032 -1.00136,-0.31387 -0.32847,0.17579 -2.64954,0.8261 -5.15793,1.44514 -2.50839,0.61904 -7.84068,1.98996 -11.84954,3.04649 l -7.28883,1.92096 -3.75117,-0.96788 c -2.06314,-0.53233 -6.02425,-1.59818 -8.80245,-2.36855 -4.51237,-1.25123 -6.04288,-1.40978 -5.14484,-0.53294 0.49371,0.48204 16.23264,4.42804 17.75589,4.45168 0.81387,0.0126 2.10987,-0.20183 2.88,-0.47658 z m 9.72023,-3.80188 c 10.26708,-2.6446 12.24732,-3.23793 11.91521,-3.57004 -0.26728,-0.26728 -12.77135,-3.04315 -13.14198,-2.91749 -0.20528,0.0696 1.033,0.46646 2.75173,0.88193 3.28185,0.7933 4.03767,1.09105 3.67931,1.44941 -0.11945,0.11946 -5.06867,1.33691 -10.99826,2.70545 l -10.78107,2.48826 -4.4672,-1.20535 c -2.45695,-0.66294 -4.57287,-1.37635 -4.70204,-1.58535 -0.1811,-0.29302 -0.57884,-0.29339 -1.73754,-0.002 -0.82647,0.2081 -1.42755,0.4535 -1.33573,0.54532 0.0918,0.0918 3.44534,1.07739 7.45226,2.19015 5.48343,1.52281 7.68104,1.99831 8.88531,1.92252 0.88,-0.0554 6.496,-1.36182 12.48,-2.90318 z m -6.16,-1.83655 c 5.588,-1.27915 10.16,-2.42542 10.16,-2.54725 0,-0.12183 -1.8032,-0.65039 -4.00712,-1.17458 l -4.00712,-0.95308 -10.23288,2.25353 c -5.62808,1.23944 -10.23288,2.35447 -10.23288,2.47785 0,0.23698 6.42741,2.13377 7.52,2.21922 0.352,0.0275 5.212,-0.99653 10.8,-2.27569 z m -12.08,-2.34601 c 15.82579,-3.30149 14.6991,-2.9788 14.82093,-4.24474 0.14203,-1.47591 -1.50013,-19.4423 -1.86471,-20.40123 -0.37398,-0.98364 0.0846,-0.9845 -10.67751,0.0199 -16.75518,1.56378 -16.82039,1.57583 -16.83381,3.11 -0.007,0.76488 0.0459,0.76199 13.31774,-0.7319 6.31255,-0.71055 11.98136,-1.25055 12.59736,-1.2 l 1.12,0.0919 0.22388,2.08 c 0.84216,7.82445 1.52028,16.46212 1.30833,16.66504 -0.35362,0.33855 -24.19639,5.09496 -25.53984,5.09496 -0.88298,0 -1.1299,-0.14215 -1.25073,-0.72 -0.15691,-0.75036 -1.22478,-11.18847 -1.86605,-18.24 -0.2543,-2.79636 -0.49396,-4.08 -0.76175,-4.08 -0.74497,0 -0.7601,1.21106 -0.10824,8.66701 1.41537,16.18892 1.54982,16.85369 3.32614,16.44573 0.36754,-0.0844 5.85226,-1.23494 12.18826,-2.55672 z m 34.36856,-0.79602 c 1.40846,-1.144 2.56773,-2.188 2.57614,-2.32 0.008,-0.132 -4.8447,-0.23106 -10.7847,-0.22013 l -10.8,0.0199 7.49956,1.68812 c 6.30489,1.41921 7.57393,1.80014 7.96645,2.39131 0.2568,0.38676 0.58273,0.66216 0.7243,0.61201 0.14158,-0.0502 1.40979,-1.02718 2.81825,-2.17118 z m -33.32856,-1.50083 12.56,-2.48889 -0.0166,-1.60514 c -0.0238,-2.30776 -1.43758,-16.44596 -1.66752,-16.6759 -0.17436,-0.17436 -23.16627,2.21777 -25.27591,2.62976 -1.12276,0.21926 -1.12467,-0.0507 0.08,11.26819 0.528,4.96101 0.96,9.0904 0.96,9.17641 0,0.31624 1.04173,0.13656 13.36,-2.30443 z m 37.29932,-6.43707 3.13931,-0.0621 -0.0993,-1.2 -0.0993,-1.2 -9.33606,-0.18095 c -6.99586,-0.1356 -9.46239,-0.28579 -9.84,-0.59919 -0.44233,-0.36709 -0.50394,-1.89763 -0.50394,-12.51821 0,-7.08749 0.12928,-12.44002 0.31208,-12.92082 l 0.31208,-0.82083 h 17.76792 c 9.77236,0 17.76279,-0.108 17.75652,-0.24 -0.006,-0.132 -0.22002,-1.104 -0.475,-2.16 -0.92464,-3.82939 -0.4892,-6.63888 1.36464,-8.80468 1.49833,-1.75045 3.3436,-2.75993 6.50756,-3.56003 5.15823,-1.3044 9.82855,-0.36672 12.47537,2.50474 2.38733,2.58995 3.00684,4.8951 3.33789,12.41997 0.29133,6.62232 0.49422,7.2617 1.59927,5.04 0.88932,-1.78798 1.08066,-9.46721 0.32555,-13.06543 -1.44891,-6.90432 -5.77943,-10.37456996 -12.9464,-10.37456996 -3.04233,0 -6.85477,0.81495996 -9.26049,1.97954996 -3.30451,1.59969 -4.99434,4.54771 -5.32519,9.29015 -0.31766,4.55345 -0.34579,4.63908 -1.66763,5.07533 -0.88372,0.29165 -5.02413,0.34703 -16.7095,0.2235 -8.54407,-0.0903 -15.85867,-0.0438 -16.25467,0.10331 l -0.72,0.26754 0.004,14.65031 c 0.002,8.05767 0.0903,14.97105 0.19543,15.36307 0.18724,0.69851 0.30388,0.7145 5.83563,0.8 5.92215,0.0915 7.19388,0.0904 12.30389,-0.0107 z m 25.40284,-15.87452 0.89784,-0.77243 -0.92049,-1.86757 c -1.36795,-2.77541 -2.08749,-5.05539 -2.60919,-8.26758 -0.53706,-3.30681 -0.6023,-5.48066 -0.17243,-5.74634 0.43289,-0.26754 0.75927,0.3985 1.15167,2.35018 0.30225,1.50331 0.47294,1.76941 1.3342,2.08 0.55865,0.20147 1.69783,1.2192 2.62279,2.34317 2.7443,3.3348 5.63513,4.47169 10.63438,4.18223 3.35367,-0.19418 4.55693,-0.69608 4.28323,-1.78659 -0.10723,-0.42724 -0.32282,-3.31612 -0.47909,-6.41973 -0.36864,-7.3217 -0.94096,-9.34055 -3.32324,-11.72283 -2.15425,-2.15425 -4.13427,-2.86788 -7.88183,-2.84076 -5.33693,0.0386 -9.52287,2.04051 -11.29286,5.40067 -0.91061,1.7287 -0.87264,5.27697 0.0873,8.16 0.46102,1.38458 0.78537,3.47084 0.97013,6.24 0.28801,4.31664 0.8111,6.62241 1.90564,8.4 0.76728,1.2461 1.56559,1.32261 2.79194,0.26758 z m -1.97617,-13.54758 c -0.23188,-1.87333 -0.35486,-2.2378 -0.6541,-1.93856 -0.28741,0.28741 0.23835,3.77856 0.56904,3.77856 0.19389,0 0.22623,-0.69953 0.0851,-1.84 z"
       id="path1" />
  </g>
</svg>
