<svg xmlns="http://www.w3.org/2000/svg" width="191" height="47" fill="none" viewBox="0 0 191 47">
<!-- SVG created with Arrow, by QuiverAI (https://quiver.ai) -->
  <path d="m171.4 5.89c-10.76 0-18 6.09-22.35 13.04-4.21 6.67-8.63 14.46-13.94 18.96 1.48-2.88 1.9-5.8 0.93-8.97-1.33-4.39-5.27-7.72-8.2-8.69l-0.46 0.59c2.94 2.76 5.33 5.93 4.39 11.56-1.05 6.09-5.67 9.66-11.58 9.66-5.29 0-7.21-2.51-7.21-5.59 0-1.64 0.39-3.37 0.9-5.29 2.02 0.33 3.84 0.51 5.28 0.51 2.88 0 4.27-1.01 4.27-2.58 0-1.35-1.21-2.37-3.4-2.11-1.47 0.19-2.72 0.65-4.98 0.34 1.13-3.5 2.53-7.18 3.71-9.89 0.75-0.11 1.57-0.16 2.45-0.16 2.71 0 3.97-0.75 3.97-2.05 0-1.41-1.47-2.19-4.17-2.16 1.1-2.66 2.78-5.25 4.41-7.12 1.26-1.47 0.29-2.99-1.55-4.14-2.07-1.25-3.84-1.02-5.53-0.71-0.87 0.17-1.24 0.63-1.18 1.08 0.05 0.46 0.54 0.41 1.51 0.58 1.52 0.31 1.91 1.66 1.33 4.04-0.49 1.97-1.49 4.22-2.59 6.66-4.7-0.31-7.3-1.24-9.12-4.4-0.78-0.32-1.24 0.14-1.18 1.06 0.29 3.76 2.72 5.22 6.8 6.47-3.91 1.13-6.88 3.06-9.26 7.03-4.54 7.47-9.23 13.21-14.99 13.55-3.22 0.2-4.26-1.13-3.48-5.07 1.33-6.67 4.52-12.17 4.52-17.04 0-4.12-3.33-5.34-5.59-5.34-5.41 0-11.31 5.09-16.37 10.04 0.63-1.87 1.06-3 1.29-3.46 0.67-1.47 0.61-1.98-0.17-2.84-0.63-0.7-0.63-1.01-0.06-2.75 0.62-1.97 1.3-3.54 2.33-4.62 1.33-1.41 0.64-2.93-1.49-4.14-1.93-1.08-3.48-0.97-4.95-0.62-0.81 0.2-0.98 0.4-0.98 1.09 0 0.34 0.4 0.37 1.09 0.48 2.01 0.34 2.35 1.86 1.61 4.24-0.57 1.92-1.13 3.8-1.64 5.59-2.79 1.25-5.72 2.56-7.65 2.7-1.38 0.11-2.32-0.31-3.07-1.83-0.75-0.11-1.72 0.59-1.61 1.77 0.11 1.13 0.5 2.26 1.26 3.18-3.5 5.18-7.2 9.77-12.08 12.62 2.49-3.02 2.88-7.08 2.88-10.27 0-7.3-5.73-11.01-12.32-10.83-0.11-5.65-1.58-7.97-5.23-7.97-5.99 0-9.51 8.14-11.46 15.23-4.58 2.8-8.79 8.59-10.67 12.56-0.7-4.54 1.91-10.86 5.24-16.26 1.84-3.17 0.06-6.71-3.9-8.08-0.88-0.31-1.45 0.2-0.88 1.08 0.97 1.59 0.4 4-1.44 8.46-2.14 5.46-3.14 9.23-2.94 14.63 0.2 5.24 1.46 8.57 4.33 8.57 1.47 0 2.03-1.17 1.98-2.87-0.2-4.98 3.5-11.98 7.53-16.11-0.17 1.22-0.85 4.84-0.03 8.22 0.89 3.64 2.81 6.94 6.79 8.51-3.19 4.6-6.73 7.36-11.35 9.04l0.28 0.97c6.47-1.33 11.47-4.63 14.77-8.93 8.97 0.67 17.53-3.4 24.34-11.11 2.16-2.45 3.91-4.69 5.17-6.39 0.88 0.68 1.94 1.05 2.87 0.85 1.52-0.37 4.04-2.01 6.36-3.23l-0.81 2.97c-4.08 5.96-8.98 11.72-12.23 14.58-2.53 2.33-2.76 5.25-1.03 5.48 1.83 0.26 3.58-1.34 5.18-5.05 2.76 1.92 3.51 4.85 3.56 7.98 0.06 2.13 0.81 2.52 1.79 2.41 2.2-0.28 3.33-2.99 3.62-6.9 0.29-4.31 0.78-8.85 2.05-15.38 6.22-6.26 12.04-10.94 16.84-10.94 2.32 0 3.19 1.46 2.73 4.65-0.62 4.23-4.56 13.65-4.99 18.18-0.4 4.23 1.7 6.43 5.25 6.32 6.11-0.17 12.1-7.62 17.75-16.62 0.63 2.7 2.89 4.58 5.99 5.71-0.81 2.77-1.2 5.3-0.92 7.71 0.57 4.78 4.53 7.44 11.06 7.44 10.08 0 16.25-7.93 25.08-21.15-0.39 2.02-0.45 3.72-0.25 6.09 0.57 6.09 3 8.22 5.76 8.22 7.1 0 15.47-13.79 18.63-23.03 1.31-4.06 0.41-6.51-1.05-7.98l0.14-0.56c9.18-0.51 14.78 3.99 14.98 12.39 0.2 9.96-7.41 20.17-20.76 22.37l-0.17 1.36c14.7-0.93 25.66-9.71 25.84-21.66 0.2-10.21-7.22-15.93-17.58-15.93zm-143.4-1.88c2.26 0 2.4 3.26 2.17 6.58-4.41 0.56-8.05 2.52-11.43 4.85 1.64-5.47 4.4-11.43 9.26-11.43zm-10.14 17.27c0-1.13 0.14-2.46 0.43-3.77 3.21-2.43 7.01-4.45 11.72-5.41-0.46 8.62-1.81 16.82-4.68 21.32-5.01-0.81-7.47-5.68-7.47-12.14zm11.22 12.14c2.65-5.3 3.98-13.27 4.09-21.1 5.6-0.19 8.53 3.72 8.3 8.74-0.34 7-4.38 12.02-12.39 12.36zm31.89 5.02c-1.13-2.33-2.57-3.91-3.9-5.07l6.38-7.58c-0.81 4.09-1.66 9.27-2.48 12.65zm45.59-14.98c0.34-3.45 3.33-5.41 8.33-6.12-1.39 3.18-2.7 6.54-3.67 9.38-2.65-0.7-4.43-1.35-4.66-3.26zm46.4 10.68c-2.59 0-3.57-2.81-3.23-7.42 0.7-9.29 9.91-16.44 17.65-17.7 1.64 1.01 1.3 4.2-0.96 9.2-3.78 8.39-10 15.92-13.46 15.92z" fill="#111"/>
</svg>