<?xml version="1.0" encoding="UTF-8" standalone="no"?>
<!-- Created with Inkscape (http://www.inkscape.org/) -->

<svg
   version="1.1"
   id="svg1"
   width="512"
   height="512"
   viewBox="0 0 512 512"
   xmlns="http://www.w3.org/2000/svg"
   xmlns:svg="http://www.w3.org/2000/svg">
  <defs
     id="defs1" />
  <g
     id="g1">
    <path
       style="fill:#000000"
       d="m 199.875,514.47716 c -25.39019,-3.81333 -44.74019,-13.50302 -60.10376,-30.09751 -9.88873,-10.68102 -18.84904,-26.6439 -22.31513,-39.75465 -3.45155,-13.05575 -3.69168,-28.18024 -3.35004,-211 0.31773,-170.030747 0.43626,-180.332308 2.14017,-186 4.92112,-16.36909 16.7981,-31.02744 30.67509,-37.85863 14.11005,-6.94593 9.45996,-6.72309 133.75952,-6.41004 124.31849,0.3131 113.86381,-0.26363 129.19415,7.12695 9.33614,4.50084 20.42185,15.7923 25.17449,25.64172 6.75909,14.007587 6.32551,-0.112481 6.32551,206 0,177.85493 -0.094,187.93644 -1.82791,195.98429 -8.59294,39.8843 -39.59744,69.68143 -78.6269,75.56501 -7.71831,1.16351 -23.80392,1.41397 -84.04519,1.30862 -40.975,-0.0716 -75.625,-0.29925 -77,-0.50576 z m 84.92892,-32.10371 c 7.22469,-3.68396 9.64859,-10.8938 6.24739,-18.58277 -3.52615,-7.97146 -12.18914,-10.95064 -20.10523,-6.91413 -7.22469,3.68396 -9.64859,10.8938 -6.24739,18.58277 3.52615,7.97146 12.18914,10.95064 20.10523,6.91413 z m 122.46409,-52.83024 c 0.33385,-0.86998 0.60699,-81.19498 0.60699,-178.5 V 74.125 h -130 -130 l 0.0136,176.25 c 0.008,96.9375 0.285,177.2625 0.61664,178.5 l 0.60297,2.25 h 128.77638 c 116.50473,0 128.83422,-0.15074 129.38337,-1.58179 z M 306.375,347.82216 c -25.7465,-8.54987 -56.55365,-35.17294 -74.97663,-64.79368 -23.25129,-37.38375 -31.16939,-73.66358 -20.86605,-95.60584 6.14507,-13.08671 22.25488,-20.3635 38.34268,-17.31937 7.12394,1.348 9.70066,3.35713 13.23076,10.31634 4.99592,9.84892 5.38975,27.64843 0.81037,36.62478 -2.46132,4.82457 -4.5239,6.06249 -10.22539,6.13705 -2.37366,0.031 -5.89074,0.60394 -7.81574,1.2731 -2.99815,1.0422 -3.48259,1.64502 -3.37858,4.2042 0.31364,7.71755 12.62314,30.68765 26.09424,48.69308 9.00601,12.03741 26.03825,29.42233 29.73428,30.34997 3.43234,0.86146 4.87818,-0.50573 9.16802,-8.66931 4.50763,-8.57804 7.1901,-9.79822 17.49292,-7.957 12.31905,2.20154 25.03844,9.70095 29.96034,17.66476 2.88435,4.66697 2.00601,11.68249 -2.69653,21.53786 -3.9312,8.23882 -8.92931,13.99216 -14.87469,17.12231 -6.23135,3.28071 -20.77502,3.48517 -30,0.42175 z M 321.00224,38.443106 c 2.78742,-2.788573 2.74333,-7.891976 -0.0927,-10.727996 -2.05207,-2.05209 -2.83499,-2.09011 -43.03454,-2.09011 -40.74889,0 -40.95487,0.0104 -43.12634,2.18189 -3.07883,3.07883 -2.77779,8.14332 0.65981,11.100408 l 2.65316,2.282298 40.37981,-0.282298 c 39.98577,-0.279543 40.40109,-0.303589 42.5608,-2.464192 z"
       id="path1" />
  </g>
</svg>
